<svg width="120" height="60" viewBox="0 0 120 60" fill="none" xmlns="http://www.w3.org/2000/svg">
  <path d="M10 25 Q15 20 30 20 Q80 20 105 25 Q110 28 110 32 Q110 36 105 38 Q85 42 70 42 Q40 42 30 38 Q15 36 10 32 Z" stroke="#FF9500" stroke-width="3" stroke-linejoin="round" stroke-linecap="round" fill="none" />
  <path d="M25 18 Q35 18 45 22 Q45 26 35 26 Q25 26 25 22 Z" stroke="#FF9500" stroke-width="2" fill="#FFE5CC" stroke-linejoin="round" />
  <path d="M55 18 Q70 18 78 22 Q78 26 70 26 Q55 26 55 22 Z" stroke="#FF9500" stroke-width="2" fill="#FFE5CC" stroke-linejoin="round" />
  <circle cx="25" cy="43" r="7" stroke="#FF9500" stroke-width="3" fill="none" stroke-linejoin="round" />
  <circle cx="85" cy="43" r="7" stroke="#FF9500" stroke-width="3" fill="none" stroke-linejoin="round" />
  <circle cx="105" cy="30" r="2" fill="#FF9500" stroke="#FF9500" stroke-width="1" />
</svg>
